<svg
fill="none"
xmlns="http://www.w3.org/2000/svg"
viewBox="0 0 558 405">
  <path
  d="M479.226 202.5c0 111.699-90.903 202.5-202.603 202.5-111.699 0-202.5-90.801-202.5-202.5C74.123 90.8 164.924 0 276.623 0c111.7 0 202.603 90.8 202.603 202.5Zm-361.761 0c0 87.815 71.446 159.262 159.158 159.262 87.713 0 159.262-71.447 159.262-159.262S364.438 43.238 276.623 43.238 117.465 114.685 117.465 202.5Z"
  fill="#6100FF"
  />
  <path
  d="M557.366 202.5c0 73.711-28.311 143.305-79.786 196.014l-30.987-30.267c43.547-44.576 67.431-103.463 67.431-165.747 0-62.387-23.987-121.273-67.431-165.747L477.58 6.486c51.475 52.71 79.786 122.303 79.786 196.014ZM0 202.5C0 128.789 28.31 59.196 79.785 6.486l30.988 30.267C67.226 81.329 43.341 140.216 43.341 202.5c0 62.387 23.987 121.273 67.432 165.747l-30.988 30.267C28.311 345.804 0 276.211 0 202.5Z"
  fill="#6100FF"
  />
</svg>
